<?xml version="1.0" standalone="no"?>
<!DOCTYPE svg PUBLIC "-//W3C//DTD SVG 20010904//EN"
 "http://www.w3.org/TR/2001/REC-SVG-20010904/DTD/svg10.dtd">
<svg version="1.0" xmlns="http://www.w3.org/2000/svg"
 width="1102.000000pt" height="606.000000pt" viewBox="0 0 1102.000000 606.000000"
 preserveAspectRatio="xMidYMid meet">

<g transform="translate(0.000000,606.000000) scale(0.100000,-0.100000)"
fill="#000000" stroke="none">
<path d="M6265 5898 c-79 -28 -295 -139 -423 -217 l-103 -63 -147 22 c-188 28
-523 38 -724 21 -285 -24 -650 -104 -1013 -221 -556 -180 -901 -372 -1166
-648 -152 -158 -217 -278 -226 -422 -10 -138 25 -266 96 -354 17 -21 31 -42
31 -45 0 -4 -21 -42 -47 -86 -83 -143 -88 -155 -76 -185 8 -22 7 -31 -4 -42
-12 -13 -11 -23 8 -74 12 -32 35 -72 51 -88 28 -28 32 -29 96 -22 76 7 145 24
392 101 96 30 218 64 270 75 125 27 326 37 415 20 l68 -13 -6 -61 c-13 -144
39 -352 143 -571 111 -234 213 -315 503 -399 82 -24 186 -47 275 -61 l43 -7
-44 89 c-86 172 -135 354 -121 458 6 49 59 314 70 346 3 12 -19 38 -72 84 -43
37 -69 65 -58 61 42 -13 400 -67 569 -85 273 -31 426 -40 835 -51 480 -12 659
-19 845 -31 874 -56 1428 -227 1761 -542 131 -124 214 -248 389 -577 48 -91
99 -178 113 -193 24 -25 25 -29 11 -37 -94 -53 -254 -211 -326 -322 -57 -88
-142 -268 -177 -373 -33 -97 -56 -227 -56 -310 0 -70 31 -268 57 -359 l16 -59
26 30 c14 16 69 80 121 142 137 163 228 216 486 281 141 36 273 87 534 208
462 213 489 222 670 222 114 0 331 -29 450 -60 41 -10 76 -18 78 -16 6 7 -50
143 -93 223 -54 102 -116 183 -190 252 -74 67 -115 90 -269 151 -234 93 -456
143 -705 159 l-125 9 -38 43 c-21 24 -86 139 -144 254 -418 826 -835 1456
-1220 1841 -330 330 -682 577 -1204 845 -142 73 -226 145 -262 226 -37 83 -25
153 44 265 l23 37 -35 31 c-19 16 -72 49 -118 72 -72 36 -92 42 -160 44 -59 3
-91 -1 -137 -18z m-2421 -1145 c14 -36 -151 -165 -186 -146 -10 5 -10 94 0
109 31 48 172 76 186 37z"/>
<path d="M5234 2475 c-204 -44 -287 -168 -301 -452 l-6 -123 -113 0 c-127 0
-158 -9 -174 -53 -13 -37 -13 -197 0 -231 13 -34 32 -43 146 -61 54 -9 109
-18 122 -21 l22 -4 0 -641 0 -640 25 -24 c24 -25 25 -25 225 -25 187 0 201 1
220 20 20 20 20 33 20 665 l0 645 130 0 c176 0 170 -6 170 184 0 144 0 145
-26 165 -24 19 -40 21 -151 21 l-125 0 4 96 c4 124 4 124 154 124 89 0 116 3
128 16 13 13 16 42 16 159 0 139 -1 145 -22 159 -55 34 -343 47 -464 21z"/>
<path d="M6000 2460 c-18 -18 -20 -33 -20 -183 0 -146 2 -166 18 -180 16 -15
48 -17 235 -17 278 0 257 -16 257 195 0 218 16 205 -260 205 -197 0 -211 -1
-230 -20z"/>
<path d="M3943 2460 c-12 -5 -26 -18 -32 -29 -8 -14 -11 -355 -11 -1101 l0
-1081 25 -24 c24 -25 25 -25 222 -25 109 0 203 4 209 8 33 22 34 43 34 1132
l0 1081 -25 24 c-24 25 -25 25 -212 24 -103 0 -198 -4 -210 -9z"/>
<path d="M570 2409 c-170 -12 -293 -30 -327 -46 -24 -11 -35 -25 -43 -52 -15
-53 -14 -1987 1 -2030 12 -34 44 -55 99 -64 165 -29 566 -50 723 -37 433 36
692 237 794 617 26 95 27 108 31 451 3 285 1 371 -12 450 -64 404 -308 646
-713 707 -105 16 -370 18 -553 4z m527 -450 c108 -34 180 -116 220 -252 24
-78 31 -639 10 -760 -34 -196 -129 -299 -304 -327 -64 -11 -255 -13 -290 -4
l-23 6 0 679 0 678 73 4 c116 6 247 -4 314 -24z"/>
<path d="M2707 1905 c-233 -45 -396 -163 -492 -358 -25 -50 -52 -119 -60 -152
-19 -74 -35 -241 -35 -360 0 -415 113 -649 375 -775 144 -69 214 -83 420 -82
173 1 291 11 425 38 138 28 176 41 188 69 17 38 16 276 -1 299 -16 21 -34 22
-272 6 -229 -15 -402 -13 -464 6 -104 30 -171 124 -183 252 l-5 52 483 0 c438
0 484 2 499 17 15 15 16 39 12 217 -3 169 -8 213 -26 275 -43 146 -123 273
-223 358 -52 44 -181 107 -263 128 -87 23 -282 28 -378 10z m281 -404 c80 -41
126 -120 138 -234 l7 -67 -265 0 -266 0 5 48 c14 149 83 243 198 273 45 12
141 2 183 -20z"/>
<path d="M7595 1906 c-81 -16 -176 -52 -246 -96 -27 -16 -51 -30 -54 -30 -3 0
-5 15 -5 34 0 19 -9 44 -19 57 -19 24 -22 24 -211 24 -189 0 -192 0 -211 -24
-18 -22 -19 -50 -19 -823 l0 -799 25 -24 c24 -25 25 -25 220 -25 195 0 196 0
220 25 l25 24 0 589 0 589 68 31 c102 46 138 55 219 54 111 -2 166 -42 184
-133 4 -24 8 -288 9 -585 0 -532 0 -542 21 -568 l20 -26 200 0 200 0 25 25 26
26 -5 592 c-4 516 -6 602 -21 667 -50 213 -140 325 -306 380 -83 28 -263 36
-365 16z"/>
<path d="M6040 1893 c-8 -3 -23 -12 -32 -21 -17 -14 -18 -66 -18 -824 0 -795
0 -808 20 -828 19 -19 33 -20 220 -20 200 0 201 0 226 25 l24 24 -2 805 c-3
757 -4 806 -21 823 -16 16 -40 18 -210 20 -106 1 -199 -1 -207 -4z"/>
<path d="M8667 563 c-4 -3 -7 -43 -7 -88 0 -61 -4 -86 -15 -95 -9 -8 -15 -30
-15 -57 0 -36 3 -44 15 -39 12 4 15 -3 15 -32 0 -51 11 -64 51 -60 l34 3 3 95
c2 70 7 99 19 112 19 21 33 23 33 5 0 -7 14 -56 30 -110 25 -79 34 -97 50 -97
13 0 17 -5 14 -14 -4 -10 -23 -16 -52 -18 -45 -3 -47 -4 -47 -33 0 -25 5 -30
35 -37 41 -8 102 6 121 28 18 22 108 337 99 347 -4 5 -25 7 -46 5 l-38 -3 -22
-88 c-12 -49 -24 -90 -27 -93 -2 -3 -9 21 -16 53 -25 128 -28 133 -71 133 -21
0 -42 5 -45 10 -5 8 -11 7 -21 -1 -12 -10 -14 -4 -14 35 l0 46 -38 0 c-21 0
-42 -3 -45 -7z"/>
<path d="M9764 557 c-2 -7 -3 -91 -2 -187 l3 -175 40 0 40 0 3 188 2 187 -40
0 c-24 0 -43 -5 -46 -13z"/>
<path d="M10194 556 c-14 -36 0 -51 46 -51 43 0 45 1 45 30 0 28 -3 30 -43 33
-30 2 -44 -1 -48 -12z"/>
<path d="M8400 471 l-25 -7 0 -179 0 -180 43 -3 42 -3 0 45 0 46 46 0 c39 0
51 5 80 34 33 33 34 37 34 111 0 74 -1 78 -34 111 -32 32 -38 34 -97 33 -35
-1 -75 -4 -89 -8z m134 -103 c6 -22 6 -50 0 -70 -8 -27 -15 -34 -42 -36 l-32
-3 0 76 0 76 33 -3 c28 -3 33 -8 41 -40z"/>
<path d="M9076 472 c-9 -15 41 -264 55 -273 23 -14 76 -10 90 7 8 9 21 44 30
78 l15 61 13 -55 c19 -78 35 -100 74 -100 17 0 38 4 46 9 12 8 60 215 61 264
0 13 -8 17 -40 17 -44 0 -42 3 -60 -109 -5 -35 -11 -65 -13 -67 -2 -2 -10 22
-17 53 -15 72 -24 83 -66 83 -38 0 -43 -7 -67 -95 l-13 -50 -15 90 -14 90 -37
3 c-20 2 -39 -1 -42 -6z"/>
<path d="M9512 471 c-8 -4 -12 -21 -10 -37 3 -27 5 -28 55 -25 43 2 53 -1 62
-17 9 -18 6 -20 -40 -26 -65 -9 -99 -40 -99 -91 0 -25 8 -43 24 -60 23 -22 31
-24 113 -22 l88 2 3 110 c3 119 -4 146 -45 164 -28 13 -132 15 -151 2z m118
-186 c0 -21 -5 -25 -30 -25 -22 0 -30 5 -30 18 0 25 9 32 37 32 18 0 23 -5 23
-25z"/>
<path d="M9904 467 c-2 -7 -3 -71 -2 -143 l3 -129 34 -3 c20 -2 37 2 42 10 5
7 9 55 9 105 0 91 0 93 25 99 14 4 29 3 33 -1 4 -3 9 -52 12 -108 l5 -102 37
-3 c33 -3 38 0 44 23 4 15 4 69 2 121 -5 81 -9 98 -28 119 -25 27 -84 34 -120
15 -13 -7 -21 -7 -25 0 -9 15 -65 12 -71 -3z"/>
<path d="M10200 335 l0 -145 40 0 40 0 0 145 0 145 -40 0 -40 0 0 -145z"/>
<path d="M10357 468 c-12 -9 -18 -23 -15 -38 3 -23 7 -25 63 -25 49 0 60 -3
63 -17 3 -13 -3 -18 -20 -18 -13 0 -40 -5 -61 -11 -30 -8 -42 -18 -53 -46 -17
-40 -5 -97 25 -112 9 -6 57 -9 107 -8 l89 2 0 117 c0 108 -2 119 -22 140 -18
18 -37 23 -90 26 -47 2 -74 -1 -86 -10z m113 -183 c0 -21 -5 -25 -30 -25 -22
0 -30 5 -30 18 0 25 9 32 37 32 18 0 23 -5 23 -25z"/>
</g>
</svg>
