<?xml version="1.0" standalone="no"?>
<!DOCTYPE svg PUBLIC "-//W3C//DTD SVG 20010904//EN"
 "http://www.w3.org/TR/2001/REC-SVG-20010904/DTD/svg10.dtd">
<svg version="1.0" xmlns="http://www.w3.org/2000/svg"
 width="762.000000pt" height="980.000000pt" viewBox="0 0 762.000000 980.000000"
 preserveAspectRatio="xMidYMid meet">

<g transform="translate(0.000000,980.000000) scale(0.100000,-0.100000)"
fill="#FFB400" stroke="none">
<path d="M3744 9781 c-50 -31 -511 -537 -875 -961 -1685 -1966 -2681 -3620
-2840 -4717 -19 -132 -21 -175 -16 -408 9 -409 62 -714 191 -1100 581 -1737
2342 -2821 4151 -2555 1414 208 2587 1180 3053 2530 131 382 190 713 199 1125
5 233 3 276 -16 408 -141 973 -928 2365 -2300 4067 -523 649 -1347 1583 -1427
1616 -45 19 -83 17 -120 -5z m146 -396 c219 -235 638 -716 916 -1050 1230
-1479 2055 -2764 2377 -3702 95 -275 145 -509 162 -748 8 -104 -9 -401 -31
-559 -106 -764 -454 -1464 -999 -2011 -567 -570 -1268 -914 -2080 -1022 -185
-24 -668 -24 -850 1 -817 111 -1512 452 -2080 1021 -576 577 -925 1312 -1016
2145 -19 171 -16 486 5 620 78 499 336 1119 767 1840 552 925 1391 2031 2395
3160 263 296 348 389 354 387 3 -1 39 -38 80 -82z"/>
</g>
</svg>
