<?xml version="1.0" standalone="no"?><svg xmlns="http://www.w3.org/2000/svg" viewBox="0 0 1440 200"><path fill="#1a6aff" fill-opacity=".5" d="M0,192L40,181.3C80,171,160,149,240,165.3C320,181,400,235,480,224C560,213,640,139,720,122.7C800,107,880,149,960,149.3C1040,149,1120,107,1200,96C1280,85,1360,107,1400,117.3L1440,128L1440,320L1400,320C1360,320,1280,320,1200,320C1120,320,1040,320,960,320C880,320,800,320,720,320C640,320,560,320,480,320C400,320,320,320,240,320C160,320,80,320,40,320L0,320Z"></path></svg>