<?xml version="1.0" encoding="UTF-8" standalone="no"?>
<svg
   xmlns:dc="http://purl.org/dc/elements/1.1/"
   xmlns:cc="http://creativecommons.org/ns#"
   xmlns:rdf="http://www.w3.org/1999/02/22-rdf-syntax-ns#"
   xmlns:svg="http://www.w3.org/2000/svg"
   xmlns="http://www.w3.org/2000/svg"
   id="svg979"
   preserveAspectRatio="xMidYMid meet"
   viewBox="0 0 1180.5231 456.78772"
   height="456.78772pt"
   width="1180.5231pt"
   version="1.0">
  <metadata
     id="metadata985">
    <rdf:RDF>
      <cc:Work
         rdf:about="">
        <dc:format>image/svg+xml</dc:format>
        <dc:type
           rdf:resource="http://purl.org/dc/dcmitype/StillImage" />
        <dc:title></dc:title>
      </cc:Work>
    </rdf:RDF>
  </metadata>
  <defs
     id="defs983" />
  <g
     style="fill:#ffffff;fill-opacity:1;stroke:none"
     id="g977"
     transform="matrix(0.1,0,0,-0.1,-129.6,621.96299)">
    <path
       style="fill:#ffffff;fill-opacity:1"
       id="path901"
       d="m 6067,6213 c -12,-21 -19,-128 -58,-867 -9,-181 -9,-221 3,-231 16,-16 225,-27 251,-14 20,11 23,52 5,67 -7,5 -50,13 -96,17 l -83,7 6,67 c 4,36 15,264 25,506 14,331 15,442 7,447 -16,10 -55,10 -60,1 z" />
    <path
       style="fill:#ffffff;fill-opacity:1"
       id="path903"
       d="m 5448,6203 c -66,-7 -68,-18 -43,-218 9,-77 19,-185 21,-240 10,-216 45,-558 64,-627 12,-41 40,-63 70,-53 32,10 33,44 6,227 -14,95 -28,207 -32,249 -6,71 -5,77 14,83 42,14 104,68 123,109 34,77 16,336 -29,396 -38,52 -118,82 -194,74 z m 114,-114 c 28,-32 43,-212 25,-300 -7,-35 -39,-79 -57,-79 -4,0 -11,30 -14,68 -4,37 -13,124 -22,194 -8,70 -12,133 -9,139 10,15 57,2 77,-22 z" />
    <path
       style="fill:#ffffff;fill-opacity:1"
       id="path905"
       d="m 6842,6147 c -5,-7 -26,-63 -46,-126 -21,-62 -59,-165 -87,-228 -27,-64 -67,-163 -88,-222 -41,-111 -111,-285 -155,-384 -32,-72 -32,-82 -1,-103 25,-16 27,-16 50,6 23,22 76,134 90,193 8,31 7,30 55,18 19,-6 55,-15 79,-21 l 43,-11 -7,-124 c -7,-117 -6,-124 13,-134 32,-17 52,-13 62,12 5,12 19,141 30,287 26,343 48,579 65,709 13,93 13,106 -1,122 -18,19 -88,24 -102,6 z m -22,-535 c -16,-140 -31,-256 -34,-259 -7,-7 -116,23 -129,36 -11,11 5,54 105,296 74,178 78,188 83,183 1,-2 -10,-117 -25,-256 z" />
    <path
       style="fill:#ffffff;fill-opacity:1"
       id="path907"
       d="m 4730,6073 c -30,-2 -65,-5 -77,-8 -28,-6 -49,-45 -58,-105 -18,-125 102,-605 200,-799 70,-139 125,-191 203,-191 92,0 143,64 150,191 7,123 -21,269 -114,589 -49,169 -170,338 -236,328 -7,-1 -38,-3 -68,-5 z m 101,-111 c 37,-34 46,-53 105,-232 82,-247 115,-381 121,-496 6,-102 -6,-158 -39,-175 -100,-54 -238,295 -335,843 -11,61 17,96 80,97 19,1 41,-11 68,-37 z" />
    <path
       style="fill:#ffffff;fill-opacity:1"
       id="path909"
       d="m 7897,5978 c -22,-12 -22,-51 1,-71 10,-10 43,-26 73,-36 31,-11 53,-24 51,-31 -1,-7 -95,-166 -209,-354 -113,-187 -231,-383 -262,-435 -31,-51 -80,-119 -108,-150 -54,-56 -63,-80 -40,-99 25,-21 200,-82 218,-77 24,8 25,47 1,68 -16,15 -50,31 -106,51 -18,6 -16,10 16,44 20,20 56,69 80,107 54,85 391,656 437,740 18,33 44,74 57,92 47,62 28,87 -86,118 -36,9 -74,23 -86,30 -13,9 -26,10 -37,3 z" />
    <path
       style="fill:#ffffff;fill-opacity:1"
       id="path911"
       d="m 11347,5842 c -15,-15 -27,-34 -27,-41 0,-8 29,-66 65,-130 35,-64 84,-161 109,-216 24,-56 86,-184 137,-285 51,-102 109,-225 130,-275 37,-87 39,-90 73,-93 31,-3 36,0 42,23 8,30 -14,94 -62,181 l -33,61 72,46 72,47 82,-85 c 83,-85 113,-101 141,-73 24,24 10,50 -81,145 -241,254 -569,616 -621,686 -34,45 -62,48 -99,9 z m 400,-479 c 69,-79 124,-145 122,-147 -17,-15 -122,-77 -125,-74 -5,6 -165,340 -197,413 l -27,60 51,-54 c 27,-29 106,-118 176,-198 z" />
    <path
       style="fill:#ffffff;fill-opacity:1"
       id="path913"
       d="m 3971,5808 c -64,-11 -91,-32 -91,-71 0,-23 73,-178 238,-507 234,-468 237,-475 267,-475 48,0 46,43 -7,135 -24,42 -79,146 -123,232 -121,237 -84,222 103,-42 113,-160 195,-250 227,-250 51,0 58,65 10,96 -14,9 -100,110 -192,225 l -166,209 -2,102 c -1,96 -4,109 -40,190 -21,48 -52,100 -69,117 -37,35 -94,50 -155,39 z m 89,-98 c 41,-44 69,-107 88,-198 12,-59 13,-87 6,-113 -10,-34 -11,-33 -97,145 -89,183 -92,195 -44,196 11,0 32,-14 47,-30 z" />
    <path
       style="fill:#ffffff;fill-opacity:1"
       id="path915"
       d="m 3340,5680 c -13,-24 3,-130 50,-330 38,-163 45,-208 32,-195 -5,6 -54,78 -109,160 -119,178 -133,193 -168,177 -47,-22 -34,-50 162,-340 252,-375 472,-692 496,-719 25,-28 48,-29 71,-4 12,14 14,24 7,42 -5,13 -86,134 -180,269 -156,224 -171,249 -171,288 0,38 2,42 18,33 9,-5 143,-111 296,-236 170,-137 285,-224 293,-220 8,3 16,5 18,5 10,0 24,40 19,54 -11,28 -503,422 -633,507 -21,13 -29,38 -63,195 -21,98 -42,207 -47,242 -6,35 -15,70 -22,78 -17,21 -57,17 -69,-6 z" />
    <path
       style="fill:#ffffff;fill-opacity:1"
       id="path917"
       d="m 2355,5605 c -21,-113 -85,-319 -142,-460 -13,-33 -27,-69 -32,-80 -21,-55 -122,-261 -160,-327 -11,-21 -30,-54 -41,-73 -29,-51 -98,-163 -139,-224 -40,-59 -36,-52 -110,-176 -30,-49 -68,-112 -86,-140 -31,-49 -50,-85 -145,-275 -83,-164 -138,-309 -178,-465 -23,-90 -26,-119 -26,-290 0,-180 1,-195 28,-285 100,-334 286,-561 565,-692 103,-48 155,-64 281,-83 168,-25 385,-14 535,29 55,15 226,92 235,105 3,4 25,20 50,34 111,66 249,225 324,376 51,101 62,129 92,237 26,92 28,112 29,279 0,200 -12,269 -82,470 -55,156 -170,396 -261,545 -12,19 -33,56 -46,81 -13,25 -43,73 -65,107 -23,33 -41,65 -41,70 0,5 -6,15 -14,21 -19,16 -127,188 -189,301 -16,30 -33,60 -37,65 -11,14 -85,162 -105,210 -10,22 -26,58 -36,80 -61,136 -121,310 -157,450 -12,44 -25,96 -30,115 l -9,35 z M 1892,4060 c -2,-17 -8,-33 -13,-36 -5,-3 -9,-12 -9,-21 0,-8 -8,-27 -18,-41 -59,-85 -103,-267 -109,-452 -7,-170 5,-271 47,-416 16,-58 30,-119 30,-137 0,-46 -45,-131 -76,-145 -82,-38 -147,7 -185,128 -55,178 -12,510 96,755 45,100 132,276 153,310 55,86 92,110 84,55 z m 561,-936 c 42,-4 74,-10 72,-15 -5,-7 21,-19 51,-25 7,-1 22,-12 33,-23 12,-12 26,-19 31,-16 5,3 14,-4 20,-15 6,-11 16,-19 22,-17 7,1 12,-3 13,-10 0,-15 13,-28 28,-28 7,-1 11,-6 9,-13 -1,-7 5,-15 13,-18 8,-4 15,-14 15,-25 0,-10 9,-24 20,-32 11,-8 17,-17 13,-20 -3,-4 -1,-7 5,-7 6,0 9,-7 6,-15 -4,-8 1,-17 9,-21 9,-3 13,-12 10,-20 -3,-8 -1,-14 4,-14 6,0 11,-26 12,-57 1,-32 6,-62 10,-66 35,-35 208,146 288,301 40,76 50,-15 15,-128 -54,-174 -172,-340 -304,-429 -26,-17 -85,-70 -131,-116 -46,-47 -88,-85 -95,-85 -7,0 -12,-4 -12,-10 0,-5 -6,-10 -12,-10 -7,0 -35,-11 -62,-25 -27,-14 -66,-25 -85,-25 -20,0 -41,-4 -48,-8 -13,-8 -186,4 -213,15 -8,3 -18,5 -22,5 -5,-1 -8,2 -8,8 0,5 -18,14 -40,20 -22,6 -40,15 -40,20 0,6 -7,10 -15,10 -8,0 -19,9 -25,20 -6,11 -15,20 -20,20 -13,0 -56,43 -53,52 2,4 -6,12 -17,18 -11,6 -20,16 -20,23 0,7 -9,23 -20,35 -11,12 -20,30 -20,40 0,11 -7,25 -15,32 -8,7 -15,27 -15,45 0,28 -4,33 -29,38 -18,4 -41,21 -58,43 -24,32 -28,47 -28,101 0,57 3,66 32,94 19,20 46,34 70,38 33,5 38,10 41,36 2,16 12,35 23,43 10,7 19,22 19,33 0,11 4,18 9,14 5,-3 12,4 16,15 3,11 11,20 16,20 6,0 7,5 3,12 -4,7 -3,8 5,4 6,-4 14,-1 17,8 3,8 14,18 25,21 11,4 16,11 13,17 -4,7 -2,8 4,4 6,-4 20,2 30,12 11,11 36,25 56,32 20,6 39,18 43,25 12,20 157,30 286,19 z m 800,-520 c -63,-136 -203,-302 -323,-382 -119,-79 -317,-158 -377,-150 -26,4 -25,6 22,27 273,126 339,167 463,285 45,43 114,121 153,173 40,51 73,92 75,90 3,-2 -4,-22 -13,-43 z" />
    <path
       style="fill:#ffffff;fill-opacity:1"
       id="path919"
       d="m 8356,5568 c -9,-12 -16,-32 -16,-44 0,-24 -84,-232 -185,-459 -107,-240 -196,-467 -193,-489 4,-28 91,-70 143,-69 68,2 154,41 205,93 67,69 154,221 229,401 57,135 74,209 65,272 -4,29 -7,55 -6,59 1,4 -12,37 -29,74 -21,48 -48,86 -89,126 -66,64 -98,73 -124,36 z m 143,-205 c 26,-93 11,-178 -69,-379 -98,-247 -187,-358 -312,-389 -20,-5 -29,-3 -34,8 -10,28 209,584 308,782 l 40,79 29,-31 c 15,-18 33,-49 38,-70 z" />
    <path
       style="fill:#ffffff;fill-opacity:1"
       id="path921"
       d="m 10902,5545 c -102,-35 -149,-61 -157,-85 -14,-44 35,-64 85,-35 14,8 31,14 37,15 14,0 72,-111 177,-340 39,-85 111,-231 160,-324 56,-106 85,-171 77,-174 -38,-13 -56,-74 -26,-86 25,-9 126,22 154,47 14,13 43,30 64,40 31,14 37,22 37,46 0,47 -29,56 -90,30 -28,-12 -52,-20 -54,-18 -14,18 -229,447 -306,612 -67,141 -94,207 -84,207 20,0 64,30 64,44 -1,44 -48,52 -138,21 z" />
    <path
       style="fill:#ffffff;fill-opacity:1"
       id="path923"
       d="m 10529,5411 c -22,-17 -23,-22 -12,-53 7,-18 19,-80 28,-138 8,-58 29,-163 45,-235 36,-162 82,-407 76,-412 -2,-2 -18,40 -35,95 -41,132 -105,290 -178,437 -63,128 -80,143 -121,108 -20,-17 -20,-21 -7,-108 7,-49 24,-149 39,-221 25,-131 60,-383 53,-390 -2,-2 -14,29 -26,69 -13,39 -65,182 -116,317 -51,135 -100,270 -110,300 -16,51 -45,90 -66,90 -5,0 -18,-9 -29,-20 l -21,-21 26,-43 c 14,-24 48,-111 74,-192 27,-82 71,-205 99,-274 27,-69 60,-159 72,-200 62,-210 120,-330 161,-330 43,0 45,34 15,309 -15,142 -36,300 -47,351 -10,52 -18,98 -16,103 1,5 22,-47 46,-115 122,-340 216,-577 238,-594 21,-17 52,-5 59,23 4,13 4,47 0,76 -3,29 -10,95 -15,147 -8,79 -47,302 -92,535 -6,28 -14,73 -19,100 -4,28 -11,57 -14,65 -3,8 -12,59 -20,113 -18,127 -36,149 -87,108 z" />
    <path
       style="fill:#ffffff;fill-opacity:1"
       id="path925"
       d="m 8990,5352 c -17,-14 -31,-53 -61,-177 -73,-303 -199,-893 -193,-908 8,-22 46,-29 64,-12 9,8 22,48 29,92 18,112 89,444 96,451 18,18 26,-32 21,-128 -23,-422 -20,-468 27,-484 19,-7 31,-6 38,1 8,8 11,104 10,325 l -2,313 44,52 c 65,76 87,116 108,196 38,146 17,223 -73,265 -69,32 -83,34 -108,14 z m 88,-91 c 40,-25 29,-142 -22,-246 -31,-63 -89,-135 -100,-124 -3,3 46,226 77,352 8,28 21,33 45,18 z" />
    <path
       style="fill:#ffffff;fill-opacity:1"
       id="path927"
       d="m 9559,5239 c -63,-68 -83,-218 -77,-581 6,-283 18,-367 70,-461 76,-137 225,-108 286,55 38,103 47,191 47,468 0,286 -6,334 -59,438 -32,63 -42,70 -128,93 -97,25 -105,24 -139,-12 z m 151,-74 c 60,-31 70,-70 81,-336 15,-332 -4,-511 -65,-604 -14,-21 -24,-26 -49,-23 -71,7 -107,160 -108,463 0,105 5,228 10,275 6,47 11,108 11,136 0,89 49,126 120,89 z" />
    <path
       style="fill:#ffffff;fill-opacity:1"
       id="path929"
       d="m 12540,3586 c 0,-11 99,-652 106,-688 5,-23 2,-28 -14,-28 -11,0 -73,-34 -138,-75 -116,-73 -194,-148 -194,-186 0,-10 36,-44 80,-77 l 80,-59 -32,-26 c -27,-20 -30,-26 -17,-32 20,-8 633,375 637,399 2,9 -1,16 -6,16 -5,0 -83,-46 -173,-103 -261,-164 -231,-149 -262,-128 l -27,18 41,46 c 22,26 45,47 49,47 5,0 10,-13 12,-29 l 3,-29 150,94 c 83,52 154,99 159,104 5,5 -79,148 -195,332 -268,428 -259,413 -259,404 z m 120,-796 c 0,-5 -2,-10 -4,-10 -3,0 -8,5 -11,10 -3,6 -1,10 4,10 6,0 11,-4 11,-10 z m -91,-66 c -47,-47 -60,-55 -75,-46 -15,8 -8,16 52,55 38,25 71,46 74,46 3,1 -20,-24 -51,-55 z" />
    <path
       style="fill:#ffffff;fill-opacity:1"
       id="path931"
       d="m 5868,3430 c -24,-25 -29,-36 -23,-58 10,-43 34,-62 75,-62 72,0 101,80 46,127 -36,31 -61,29 -98,-7 z" />
    <path
       style="fill:#ffffff;fill-opacity:1"
       id="path933"
       d="m 5802,3265 c -22,-18 -41,-55 -71,-137 -50,-137 -51,-158 -10,-192 17,-14 34,-26 39,-26 4,0 37,-14 74,-31 l 66,-31 -15,-28 c -8,-16 -15,-41 -15,-55 0,-23 4,-26 28,-23 22,2 33,14 60,69 19,38 30,72 26,82 -3,9 -32,31 -64,49 l -58,31 20,46 c 11,25 24,57 29,70 l 9,23 40,-36 c 22,-20 44,-36 48,-36 4,0 39,13 77,29 72,30 91,55 62,79 -10,9 -26,7 -63,-4 l -49,-16 -81,81 c -50,50 -88,81 -101,81 -12,0 -35,-11 -51,-25 z" />
    <path
       style="fill:#ffffff;fill-opacity:1"
       id="path935"
       d="m 7351,3204 c -28,-35 -26,-69 4,-99 49,-50 125,-20 125,50 0,72 -86,104 -129,49 z" />
    <path
       style="fill:#ffffff;fill-opacity:1"
       id="path937"
       d="m 6187,3103 c -39,-62 -47,-81 -42,-95 3,-8 -11,-20 -36,-32 -112,-51 -133,-224 -37,-313 123,-115 328,-26 328,143 0,105 -72,183 -176,192 -30,2 -54,6 -54,8 0,2 14,26 30,54 32,55 35,66 20,75 -5,3 -20,-11 -33,-32 z m 94,-153 c 101,-52 117,-185 30,-263 -69,-63 -161,-58 -224,12 -38,43 -52,86 -43,134 21,111 137,168 237,117 z" />
    <path
       style="fill:#ffffff;fill-opacity:1"
       id="path939"
       d="m 7059,2999 c -30,-45 -39,-67 -35,-85 11,-41 50,-32 86,21 28,41 35,45 70,45 22,0 40,-2 40,-5 0,-3 -13,-31 -29,-63 -28,-56 -74,-182 -85,-233 -6,-28 -38,-39 -119,-39 -42,0 -53,-15 -43,-56 l 7,-26 109,4 c 60,1 114,8 120,14 5,5 16,41 23,80 l 13,69 37,-71 36,-72 -60,-46 c -51,-40 -60,-51 -57,-74 3,-23 8,-27 35,-27 24,0 51,14 103,55 83,65 84,72 39,189 l -32,80 29,48 28,48 14,-36 c 13,-35 17,-37 89,-53 81,-18 103,-12 103,25 0,21 -21,34 -72,43 -39,7 -42,12 -81,131 -11,32 -24,46 -63,67 -45,25 -58,28 -156,28 h -107 z" />
    <path
       style="fill:#ffffff;fill-opacity:1"
       id="path941"
       d="m 5550,2889 c -84,-25 -140,-100 -140,-189 0,-194 243,-270 355,-111 26,37 30,51 30,110 0,57 -4,74 -28,109 -45,68 -140,103 -217,81 z m 141,-52 c 37,-24 79,-97 79,-137 0,-40 -42,-113 -79,-137 -47,-32 -125,-32 -171,0 -57,38 -75,71 -75,137 0,66 18,99 75,138 46,31 124,31 171,-1 z" />
    <path
       style="fill:#ffffff;fill-opacity:1"
       id="path943"
       d="m 4598,2858 c -15,-12 -88,-188 -88,-214 0,-6 25,-38 55,-71 30,-34 55,-65 55,-70 0,-4 -29,-58 -64,-118 -35,-61 -63,-111 -62,-112 1,-1 42,13 91,32 50,19 116,40 148,47 56,12 60,15 83,61 14,26 22,56 19,66 -7,22 -74,71 -97,71 -9,0 -39,25 -67,56 l -50,56 28,77 c 16,42 26,83 23,91 -5,18 -31,40 -47,40 -6,0 -19,-6 -27,-12 z" />
    <path
       style="fill:#ffffff;fill-opacity:1"
       id="path945"
       d="m 12215,2818 c -49,-26 -59,-77 -24,-122 16,-20 29,-26 59,-26 83,0 112,108 39,145 -33,18 -47,18 -74,3 z" />
    <path
       style="fill:#ffffff;fill-opacity:1"
       id="path947"
       d="m 8161,2763 c -55,-47 -24,-133 48,-133 61,0 95,55 67,108 -24,46 -76,57 -115,25 z" />
    <path
       style="fill:#ffffff;fill-opacity:1"
       id="path949"
       d="m 12998,2686 c -94,-90 -154,-126 -298,-181 -51,-20 -120,-50 -153,-67 -64,-35 -207,-161 -207,-184 0,-26 26,-14 70,32 83,86 152,129 302,188 79,31 168,72 198,93 104,70 226,205 182,203 -4,-1 -46,-38 -94,-84 z" />
    <path
       style="fill:#ffffff;fill-opacity:1"
       id="path951"
       d="m 4804,2726 c -59,-26 -66,-112 -12,-150 35,-25 76,-20 109,13 48,48 36,111 -26,137 -40,16 -32,16 -71,0 z" />
    <path
       style="fill:#ffffff;fill-opacity:1"
       id="path953"
       d="m 5900,2701 c -37,-11 -56,-23 -58,-35 -3,-13 1,-17 9,-14 8,3 44,13 82,23 41,11 67,23 67,31 0,18 -31,16 -100,-5 z" />
    <path
       style="fill:#ffffff;fill-opacity:1"
       id="path955"
       d="m 7987,2708 c -28,-15 -19,-47 30,-105 l 47,-55 -33,-97 c -19,-53 -63,-150 -97,-215 -67,-124 -78,-170 -45,-181 35,-11 52,8 114,124 71,134 80,128 42,-29 -30,-127 -31,-136 -5,-150 24,-13 56,1 64,27 3,10 32,114 65,232 33,117 62,216 65,218 2,3 48,-11 102,-31 112,-42 129,-43 144,-16 22,42 6,53 -178,118 -165,60 -180,67 -222,111 -51,54 -69,63 -93,49 z" />
    <path
       style="fill:#ffffff;fill-opacity:1"
       id="path957"
       d="m 8528,2695 c -3,-3 3,-34 14,-68 30,-93 29,-198 -3,-267 -35,-74 -69,-112 -145,-161 -35,-23 -64,-48 -64,-55 0,-20 8,-18 66,16 71,40 137,109 171,178 24,50 28,68 28,147 0,129 -36,240 -67,210 z" />
    <path
       style="fill:#ffffff;fill-opacity:1"
       id="path959"
       d="m 11521,2553 c -35,-20 -71,-48 -79,-63 -20,-35 -191,-125 -240,-126 -20,0 -92,-11 -160,-24 -170,-32 -210,-56 -275,-170 -52,-92 -98,-130 -157,-130 -27,0 -170,-63 -170,-75 0,-15 36,-75 44,-75 24,0 155,81 161,99 7,23 209,136 225,126 6,-3 17,-19 25,-36 15,-27 14,-29 -4,-29 -30,0 -51,-11 -51,-26 0,-8 3,-14 8,-14 28,0 729,134 737,142 33,31 -47,21 -447,-56 -25,-5 -32,1 -69,55 -22,33 -39,62 -37,64 11,11 155,75 170,75 9,0 22,8 27,18 14,27 214,132 239,125 20,-5 172,70 172,85 0,12 -40,72 -47,72 -5,-1 -37,-17 -72,-37 z m -682,-404 c -16,-10 -23,-4 -14,10 3,6 11,8 17,5 6,-4 5,-9 -3,-15 z" />
    <path
       style="fill:#ffffff;fill-opacity:1"
       id="path961"
       d="m 5030,2464 c -74,-60 -173,-107 -303,-144 -129,-37 -176,-57 -265,-110 -99,-60 -119,-77 -105,-90 8,-9 25,-2 70,28 93,63 172,99 304,137 68,20 156,52 194,71 80,39 185,119 185,140 0,24 -22,15 -80,-32 z" />
    <path
       style="fill:#ffffff;fill-opacity:1"
       id="path963"
       d="m 9511,2463 c -11,-10 -24,-32 -27,-50 -5,-26 -1,-37 19,-57 52,-52 131,-22 131,49 0,65 -73,99 -123,58 z" />
    <path
       style="fill:#ffffff;fill-opacity:1"
       id="path965"
       d="m 10772,2454 c -32,-22 -43,-57 -31,-94 13,-35 35,-50 78,-50 71,0 100,88 45,138 -30,26 -61,28 -92,6 z" />
    <path
       style="fill:#ffffff;fill-opacity:1"
       id="path967"
       d="m 5078,2401 c -78,-63 -159,-102 -308,-146 -69,-21 -156,-53 -194,-72 -94,-47 -176,-103 -176,-119 0,-22 15,-17 90,32 92,59 149,84 299,128 68,20 148,50 180,65 82,42 181,119 181,142 0,27 -8,24 -72,-30 z" />
    <path
       style="fill:#ffffff;fill-opacity:1"
       id="path969"
       d="m 8605,2399 c -9,-14 -10,-14 80,-48 89,-35 105,-37 105,-17 0,9 -33,26 -86,45 -98,36 -91,34 -99,20 z" />
    <path
       style="fill:#ffffff;fill-opacity:1"
       id="path971"
       d="m 9418,2236 c -93,-39 -98,-43 -105,-76 -14,-69 -9,-132 10,-144 15,-9 22,-7 38,13 10,13 19,37 19,55 0,37 7,49 37,65 40,21 43,15 43,-81 0,-89 13,-208 25,-240 5,-11 -11,-23 -59,-44 -74,-32 -89,-55 -58,-87 l 21,-20 96,43 c 110,50 116,60 92,146 -9,30 -12,54 -8,54 14,0 111,-81 111,-93 0,-6 -13,-34 -30,-64 -34,-59 -37,-85 -15,-103 29,-24 62,4 105,89 22,45 40,88 40,98 0,10 -32,49 -71,89 l -70,71 7,51 c 3,29 10,52 15,52 4,0 16,-11 26,-24 l 19,-24 77,15 c 66,14 78,19 83,39 10,39 -3,47 -64,39 l -55,-7 -61,60 c -57,55 -65,60 -116,65 -48,4 -67,-1 -152,-37 z" />
    <path
       style="fill:#ffffff;fill-opacity:1"
       id="path973"
       d="m 11605,2093 c -16,-9 -66,-30 -110,-46 -76,-29 -90,-30 -290,-37 -190,-7 -217,-10 -288,-34 -110,-37 -162,-65 -148,-79 8,-8 25,-5 63,11 131,53 137,55 348,63 135,5 225,13 264,24 81,22 229,92 221,105 -9,14 -25,12 -60,-7 z" />
    <path
       style="fill:#ffffff;fill-opacity:1"
       id="path975"
       d="m 9935,1935 c -51,-50 -20,-129 50,-129 71,0 104,90 49,133 -35,28 -69,26 -99,-4 z" />
  </g>
</svg>
