<?xml version="1.0" encoding="UTF-8" standalone="no"?>
<svg
   xmlns:dc="http://purl.org/dc/elements/1.1/"
   xmlns:cc="http://creativecommons.org/ns#"
   xmlns:rdf="http://www.w3.org/1999/02/22-rdf-syntax-ns#"
   xmlns:svg="http://www.w3.org/2000/svg"
   xmlns="http://www.w3.org/2000/svg"
   id="svg887"
   version="1.1"
   viewBox="0 0 97.599511 71.068412"
   height="71.068413"
   width="97.59951">
  <metadata
     id="metadata893">
    <rdf:RDF>
      <cc:Work
         rdf:about="">
        <dc:format>image/svg+xml</dc:format>
        <dc:type
           rdf:resource="http://purl.org/dc/dcmitype/StillImage" />
        <dc:title></dc:title>
      </cc:Work>
    </rdf:RDF>
  </metadata>
  <defs
     id="defs891" />
  <g
     transform="translate(-187.67602,-389.71413)"
     data-name="Group 34"
     id="Group_34">
    <path
       style="fill:#ffffff;fill-opacity:1"
       d="m 275.039,425.789 -24.117,24.117 a 16.842,16.842 0 0 1 -22.737,0.959 14.033,14.033 0 0 1 -1.062,-0.959 14.267,14.267 0 0 1 -0.96,-1.062 16.843,16.843 0 0 1 0.96,-22.737 l 16.756,-16.756 a 2.992,2.992 0 0 0 0.1,-4.117 4.968,4.968 0 0 0 -2.11,-1.276 c -1.163,-0.08 -2.653,1.568 -2.653,1.568 l -1.707,1.707 -14.629,14.632 a 22.828,22.828 0 0 0 32.284,32.283 l 25.8,-25.794 c 3.309,-3.562 -0.733,-6.021 -2.608,-5.1 a 15.117,15.117 0 0 0 -3.317,2.535 z"
       data-name="Path 70"
       id="Path_70" />
    <path
       style="fill:#ffffff;fill-opacity:1"
       d="m 248.809,432.463 31.347,-31.348 a 3.1,3.1 0 0 0 -0.16,-4.327 c -2.555,-1.977 -6.2,2.206 -6.2,2.206 l -29.23,29.226 a 13.737,13.737 0 0 1 4.243,4.243 z"
       data-name="Path 71"
       id="Path_71" />
    <path
       style="fill:#ffffff;fill-opacity:1"
       d="m 249.868,445.546 34.355,-34.356 a 3.155,3.155 0 0 0 0.256,-4.448 c -2.513,-2.429 -6.449,2.157 -6.449,2.157 l -27.892,27.892 a 13.323,13.323 0 0 1 -0.27,8.755 z"
       data-name="Path 72"
       id="Path_72" />
    <path
       style="fill:#ffffff;fill-opacity:1"
       d="m 240.277,426.852 30.1,-30.1 a 3.059,3.059 0 0 0 0.167,-4.106 c 0,0 -1.474,-1.383 -2.51,-1.259 -1.082,0.13 -2.477,1.7 -2.477,1.7 l -1.39,1.39 -32.684,32.684 a 13.39,13.39 0 0 1 8.794,-0.309 z"
       data-name="Path 73"
       id="Path_73" />
    <circle
       style="fill:#ffffff;fill-opacity:1"
       transform="translate(227.023,430.006)"
       r="10"
       cy="10"
       cx="10"
       data-name="Ellipse 6"
       id="Ellipse_6" />
    <g
       style="fill:#ffffff;fill-opacity:1"
       data-name="Group 31"
       id="Group_31">
      <path
         style="fill:#ffffff;fill-opacity:1"
         d="m 197.913,424.124 a 15.118,15.118 0 0 0 -3.312,-2.539 c -1.875,-0.917 -5.917,1.541 -2.609,5.1 l 25.377,25.377 a 23.578,23.578 0 0 1 -5.845,-14.33 z"
         data-name="Path 78"
         id="Path_78" />
      <path
         style="fill:#ffffff;fill-opacity:1"
         d="M 219.952,418.121 199.16,397.329 c 0,0 -3.649,-4.184 -6.205,-2.206 a 3.1,3.1 0 0 0 -0.159,4.327 l 23.149,23.15 a 23.661,23.661 0 0 1 2.449,-2.921 z"
         data-name="Path 79"
         id="Path_79" />
      <path
         style="fill:#ffffff;fill-opacity:1"
         d="m 194.922,407.233 c 0,0 -3.936,-4.586 -6.449,-2.156 a 3.155,3.155 0 0 0 0.255,4.448 l 23.072,23.069 a 23.609,23.609 0 0 1 2.034,-6.451 z"
         data-name="Path 80"
         id="Path_80" />
      <path
         style="fill:#ffffff;fill-opacity:1"
         d="m 208.785,392.812 -1.39,-1.39 c 0,0 -1.4,-1.57 -2.478,-1.7 -1.035,-0.124 -2.509,1.259 -2.509,1.259 a 3.056,3.056 0 0 0 0.167,4.105 l 20.205,20.2 4.243,-4.242 z"
         data-name="Path 81"
         id="Path_81" />
    </g>
  </g>
</svg>
