<?xml version="1.0" standalone="no"?>
<!DOCTYPE svg PUBLIC "-//W3C//DTD SVG 20010904//EN"
 "http://www.w3.org/TR/2001/REC-SVG-20010904/DTD/svg10.dtd">
<svg version="1.0" xmlns="http://www.w3.org/2000/svg"
 width="500.000000pt" height="470.000000pt" viewBox="0 0 500.000000 470.000000"
 preserveAspectRatio="xMidYMid meet">

<g transform="translate(0.000000,470.000000) scale(0.100000,-0.100000)"
fill="#000000" stroke="none">
<path d="M3495 4526 c-72 -33 -187 -140 -283 -262 -22 -28 -86 -118 -142 -200
-56 -82 -109 -156 -117 -165 -8 -9 -42 -22 -76 -28 -127 -25 -426 -102 -557
-145 -494 -161 -871 -382 -1092 -641 -79 -93 -208 -286 -208 -312 0 -11 8 -45
17 -74 23 -70 82 -130 150 -153 57 -19 189 -36 283 -36 36 0 110 -11 165 -24
199 -49 281 -59 475 -59 102 -1 202 2 223 7 l39 7 -62 61 c-99 99 -113 151
-48 184 26 14 49 15 120 10 64 -4 103 -2 145 10 92 24 323 64 374 64 61 0 153
-46 285 -145 l101 -74 64 10 c103 17 331 14 434 -5 353 -68 586 -289 659 -628
8 -35 0 -39 -145 -77 -167 -43 -225 -67 -275 -115 -39 -38 -44 -48 -44 -87 l0
-44 113 0 c112 0 115 -1 168 -34 l54 -33 38 22 c21 12 41 19 44 16 3 -2 0 -21
-7 -41 -15 -45 -5 -58 89 -114 75 -45 135 -105 158 -160 9 -20 19 -76 22 -125
l6 -89 32 27 c88 74 128 183 120 331 -5 106 -27 185 -83 300 -27 54 -29 66
-23 120 12 108 9 348 -6 475 -54 455 -255 852 -582 1152 -135 124 -266 212
-468 314 -152 77 -161 83 -173 120 -37 108 51 399 174 570 l44 63 -29 16 c-44
22 -118 19 -176 -9z m-1194 -1512 c64 -19 119 -57 119 -84 0 -10 -15 -27 -32
-39 -18 -11 -52 -36 -76 -56 -64 -52 -94 -57 -270 -43 -84 6 -161 17 -169 23
-37 28 20 112 108 159 101 56 217 70 320 40z m1664 -199 c194 -49 349 -191
432 -395 22 -55 66 -230 58 -230 -2 0 -29 48 -60 108 -70 133 -156 257 -198
283 -35 21 -46 20 -60 -3 -8 -12 -2 -23 29 -49 77 -65 140 -137 172 -197 31
-58 65 -142 58 -142 -2 0 -18 24 -34 53 -59 105 -182 217 -307 280 -84 42
-214 76 -325 86 -109 9 -291 0 -375 -19 -41 -9 -56 -8 -87 6 -58 26 -51 50 20
65 31 7 82 27 112 45 95 56 195 95 305 118 50 10 206 5 260 -9z m-2080 -57
c16 -15 -24 -38 -66 -38 -42 0 -57 13 -39 35 20 24 81 26 105 3z m305 -160
c24 -40 56 -87 73 -105 l30 -32 -28 -7 c-67 -17 -390 15 -655 65 -58 10 -161
22 -230 25 -135 5 -216 24 -245 56 -22 24 -17 24 74 4 68 -15 75 -15 178 5
105 22 109 22 252 5 173 -19 242 -15 371 25 52 17 105 30 116 30 17 1 32 -17
64 -71z m2403 -850 c130 -130 177 -246 164 -401 -8 -84 -38 -199 -52 -198 -5
0 -13 25 -16 54 -10 86 -78 171 -186 233 -81 46 -84 50 -77 110 8 66 -5 74
-71 45 l-45 -20 -35 24 c-37 25 -102 42 -197 52 -68 7 -72 18 -24 61 43 38
118 66 245 92 148 30 135 37 149 -82 7 -56 14 -104 17 -106 14 -14 20 19 23
114 2 57 8 104 13 104 6 0 47 -37 92 -82z"/>
<path d="M2072 3860 c-62 -22 -106 -48 -183 -107 -71 -53 -106 -94 -135 -158
-42 -90 -37 -91 99 -20 67 34 165 78 218 96 l96 33 -2 81 c-1 44 -3 83 -3 88
-3 12 -34 8 -90 -13z"/>
<path d="M2770 2711 c-271 -61 -282 -62 -382 -56 -85 6 -99 5 -104 -9 -15 -40
128 -200 255 -285 269 -182 666 -269 874 -191 55 21 137 85 137 108 0 14 -120
113 -295 243 -269 201 -272 203 -340 206 -33 1 -98 -6 -145 -16z"/>
<path d="M2147 2334 c-10 -10 -8 -1316 1 -1332 7 -9 41 -12 138 -10 l129 3 5
215 5 215 26 -40 c14 -22 75 -120 134 -217 l109 -178 158 0 c136 0 158 2 158
16 0 8 -73 126 -162 261 -90 136 -162 250 -161 254 2 5 77 110 168 234 92 124
163 230 160 235 -4 6 -67 10 -156 10 l-149 0 -127 -192 c-69 -106 -133 -201
-142 -212 -15 -17 -16 13 -21 360 l-5 379 -131 3 c-71 1 -133 -1 -137 -4z"/>
<path d="M615 2314 c-51 -8 -137 -35 -175 -54 -100 -51 -191 -171 -227 -300
-26 -96 -26 -534 0 -630 70 -248 268 -376 549 -356 253 17 411 155 459 401 21
105 18 457 -4 555 -55 245 -214 374 -472 384 -55 3 -113 2 -130 0z m207 -285
c43 -22 70 -57 92 -122 23 -67 23 -449 1 -525 -35 -116 -130 -169 -257 -142
-129 27 -168 121 -168 405 0 237 26 329 107 382 54 36 156 37 225 2z"/>
<path d="M1833 1991 c-29 -11 -66 -29 -83 -41 -29 -21 -30 -21 -30 -1 0 50 -4
51 -140 51 -107 0 -129 -3 -134 -16 -8 -20 -8 -958 0 -978 5 -13 27 -16 134
-16 92 0 131 4 137 13 4 6 10 172 13 367 l5 355 57 22 c31 13 87 26 125 30
l68 8 0 110 0 110 -50 2 c-30 2 -71 -5 -102 -16z"/>
<path d="M3400 2005 c-8 -2 -49 -9 -90 -15 -41 -7 -81 -17 -87 -22 -9 -7 -13
-42 -13 -106 l0 -95 168 7 c184 8 224 4 262 -24 21 -16 25 -28 28 -89 l4 -71
-78 0 c-104 -1 -218 -16 -278 -37 -64 -23 -129 -82 -151 -135 -50 -126 -18
-303 70 -381 50 -45 106 -62 211 -62 95 0 104 2 172 35 l71 36 3 -26 3 -25
119 -3 c82 -2 123 1 133 10 13 10 14 65 11 382 -4 354 -5 374 -26 426 -28 70
-89 131 -167 166 -55 25 -72 27 -205 30 -80 2 -152 1 -160 -1z m280 -684 l0
-98 -42 -17 c-104 -39 -200 -26 -214 29 -12 47 1 124 26 150 27 29 41 32 148
34 l82 1 0 -99z"/>
<path d="M3360 855 l0 -55 65 0 65 0 0 55 0 55 -65 0 -65 0 0 -55z"/>
<path d="M690 747 l0 -153 -30 -29 c-27 -26 -30 -35 -30 -92 0 -35 3 -63 7
-63 4 0 17 10 30 22 l23 21 0 -96 0 -97 65 0 65 0 0 163 0 163 30 29 c28 27
30 34 30 99 l0 69 -23 -21 c-13 -12 -26 -22 -30 -22 -4 0 -7 36 -7 80 l0 80
-65 0 -65 0 0 -153z"/>
<path d="M2605 887 c-3 -7 -4 -149 -3 -317 l3 -305 63 -3 62 -3 0 321 0 320
-60 0 c-40 0 -62 -4 -65 -13z"/>
<path d="M255 726 l-60 -11 -3 -307 -2 -308 65 0 65 0 0 78 0 78 73 0 c144 0
206 70 207 233 0 103 -15 155 -55 196 -54 53 -152 68 -290 41z m186 -115 c21
-17 24 -30 27 -99 6 -121 -21 -159 -109 -150 l-34 3 -3 133 -3 132 50 0 c33 0
56 -6 72 -19z"/>
<path d="M2197 730 c-50 -9 -59 -20 -55 -66 l3 -39 92 3 c83 4 93 2 113 -18
12 -12 20 -31 18 -43 -3 -20 -10 -23 -85 -28 -124 -9 -168 -48 -167 -145 2
-92 50 -139 144 -139 36 0 66 6 82 17 22 15 27 15 32 3 4 -11 22 -15 66 -15
l60 0 0 168 c0 186 -7 226 -47 264 -47 44 -149 59 -256 38z m168 -314 c0 -48
-1 -50 -34 -59 -19 -4 -45 -6 -58 -3 -19 5 -23 13 -23 45 0 51 27 71 90 68 23
-2 25 -6 25 -51z"/>
<path d="M3013 721 c-35 -16 -42 -17 -47 -5 -4 10 -23 14 -66 14 l-60 0 2
-232 3 -233 63 -3 62 -3 0 170 0 170 30 16 c43 22 86 19 104 -7 13 -18 16 -54
16 -185 l0 -163 66 0 66 0 -4 193 c-3 163 -6 197 -21 225 -33 61 -131 80 -214
43z"/>
<path d="M3695 736 c-5 -3 -27 -7 -47 -11 -38 -6 -38 -6 -38 -53 l0 -48 93 4
c105 5 127 -5 127 -59 l0 -29 -68 0 c-79 0 -149 -29 -169 -70 -21 -42 -16
-122 10 -161 39 -58 131 -73 208 -33 26 13 29 13 29 -1 0 -12 13 -15 61 -15
l61 0 -4 193 c-3 211 -6 221 -67 259 -25 16 -54 22 -110 25 -42 1 -80 1 -86
-1z m133 -318 c-3 -52 -4 -53 -41 -62 -49 -12 -71 0 -75 43 -5 50 16 66 91 70
28 1 28 0 25 -51z"/>
<path d="M900 720 c0 -6 16 -66 35 -133 87 -300 89 -303 130 -317 25 -8 32
-15 28 -30 -9 -34 -32 -43 -106 -44 l-72 -1 -3 -42 c-3 -39 -1 -43 25 -50 15
-4 60 -8 98 -7 125 0 150 27 204 219 16 61 48 172 71 249 22 76 40 145 40 152
0 11 -17 14 -68 14 l-67 0 -38 -157 c-20 -87 -37 -164 -37 -170 0 -7 -4 -13
-9 -13 -12 0 -21 31 -62 203 l-32 137 -69 0 c-40 0 -68 -4 -68 -10z"/>
<path d="M1400 720 c0 -11 68 -385 76 -417 8 -32 33 -43 96 -43 80 0 81 2 123
163 16 59 31 104 35 100 4 -4 20 -57 35 -118 15 -60 35 -118 43 -127 11 -14
30 -18 77 -18 46 0 66 4 77 18 16 17 100 437 90 447 -3 3 -31 5 -63 5 -68 0
-58 21 -90 -187 -12 -79 -25 -143 -29 -143 -3 0 -17 44 -29 98 -13 53 -29 112
-37 130 -13 31 -14 32 -77 32 -76 0 -69 9 -113 -163 -15 -59 -29 -106 -31
-104 -4 4 -21 103 -44 255 l-13 82 -63 0 c-35 0 -63 -4 -63 -10z"/>
<path d="M3360 495 l0 -235 65 0 65 0 0 235 0 235 -65 0 -65 0 0 -235z"/>
</g>
</svg>
