<?xml version="1.0" standalone="no"?><svg xmlns="http://www.w3.org/2000/svg" viewBox="0 0 1440 220"><path fill="#00266C" fill-opacity="1" d="M0,192L40,181.3C80,171,160,149,240,149.3C320,149,400,171,480,160C560,149,640,107,720,117.3C800,128,880,192,960,197.3C1040,203,1120,149,1200,144C1280,139,1360,181,1400,202.7L1440,224L1440,320L1400,320C1360,320,1280,320,1200,320C1120,320,1040,320,960,320C880,320,800,320,720,320C640,320,560,320,480,320C400,320,320,320,240,320C160,320,80,320,40,320L0,320Z"></path></svg>