<?xml version="1.0" standalone="no"?>
<!DOCTYPE svg PUBLIC "-//W3C//DTD SVG 20010904//EN"
 "http://www.w3.org/TR/2001/REC-SVG-20010904/DTD/svg10.dtd">
<svg version="1.0" xmlns="http://www.w3.org/2000/svg"
 width="256.000000pt" height="256.000000pt" viewBox="0 0 256.000000 256.000000"
 preserveAspectRatio="xMidYMid meet">

<g transform="translate(0.000000,256.000000) scale(0.100000,-0.100000)"
fill="#000000" stroke="none">
<path d="M309 2218 c-66 -97 -165 -168 -235 -168 -18 0 -42 -9 -55 -19 -20
-16 -22 -23 -13 -47 9 -28 12 -29 74 -29 81 0 153 32 228 99 l52 48 54 -50
c87 -79 133 -97 251 -97 90 0 105 3 156 29 32 15 78 49 103 75 l46 47 51 -49
c28 -27 76 -61 108 -76 48 -22 69 -26 151 -26 81 0 103 4 150 26 30 14 79 47
108 74 l53 47 52 -49 c84 -79 133 -98 252 -98 118 0 164 18 251 97 l54 50 52
-48 c75 -67 147 -99 228 -99 62 0 65 1 74 29 9 24 7 31 -13 47 -13 10 -37 19
-55 19 -70 0 -169 71 -236 168 -33 49 -63 41 -118 -31 -76 -100 -161 -143
-264 -134 -79 7 -138 44 -207 130 -63 78 -87 85 -122 35 -153 -224 -365 -224
-518 0 -34 49 -61 43 -115 -26 -75 -99 -146 -141 -237 -142 -85 0 -176 48
-230 123 -49 69 -58 77 -83 77 -17 0 -32 -11 -47 -32z"/>
<path d="M301 1387 c-60 -88 -137 -143 -217 -154 -25 -3 -55 -14 -67 -23 -18
-15 -20 -22 -11 -46 9 -28 12 -29 74 -29 80 0 155 34 229 103 l51 48 41 -42
c23 -24 69 -58 103 -76 58 -31 67 -33 161 -33 119 0 166 19 253 100 l55 51 48
-47 c27 -26 75 -60 106 -76 51 -25 69 -28 153 -28 84 0 102 3 153 28 31 16 79
50 106 76 l48 47 55 -51 c87 -81 134 -100 253 -100 94 0 103 2 161 33 34 18
80 52 103 76 l41 42 51 -48 c74 -69 149 -103 229 -103 62 0 65 1 74 29 9 24 7
31 -11 46 -12 9 -42 20 -67 23 -82 12 -159 68 -225 165 -36 51 -69 45 -116
-23 -130 -190 -336 -193 -477 -8 -58 77 -85 81 -126 21 -36 -52 -97 -110 -144
-135 -23 -12 -55 -18 -108 -18 -53 0 -85 6 -108 18 -47 25 -108 83 -144 135
-41 60 -68 56 -126 -21 -141 -185 -347 -182 -478 9 -49 71 -79 74 -123 11z"/>
<path d="M301 567 c-34 -51 -97 -109 -140 -132 -17 -8 -52 -18 -78 -22 -75 -9
-105 -49 -66 -88 13 -14 29 -16 75 -12 76 7 151 44 216 106 l50 48 44 -44 c24
-24 72 -58 108 -76 58 -29 73 -32 155 -32 82 0 97 3 155 32 36 18 84 52 108
76 l44 44 50 -48 c28 -27 76 -61 107 -77 49 -24 68 -27 151 -27 83 0 102 3
151 27 31 16 79 50 107 77 l50 48 44 -44 c24 -24 72 -58 108 -76 58 -29 73
-32 155 -32 82 0 97 3 155 32 36 18 84 52 108 76 l43 44 50 -48 c62 -60 141
-99 217 -106 46 -4 62 -2 75 12 39 39 9 79 -66 88 -26 4 -61 14 -78 22 -43 23
-106 81 -140 132 -44 64 -73 60 -126 -15 -64 -90 -150 -141 -243 -141 -84 -1
-184 62 -240 149 -46 71 -74 70 -132 -7 -82 -107 -163 -150 -264 -140 -84 9
-146 50 -215 144 -55 74 -81 73 -136 -5 -132 -187 -339 -188 -474 -1 -56 76
-84 80 -128 16z"/>
</g>
</svg>
