<?xml version="1.0" standalone="no"?><svg xmlns="http://www.w3.org/2000/svg" viewBox="0 0 1440 200"><path fill="#1A6AFF" fill-opacity="0.5" d="M0,128L26.7,117.3C53.3,107,107,85,160,96C213.3,107,267,149,320,165.3C373.3,181,427,171,480,149.3C533.3,128,587,96,640,90.7C693.3,85,747,107,800,101.3C853.3,96,907,64,960,64C1013.3,64,1067,96,1120,122.7C1173.3,149,1227,171,1280,176C1333.3,181,1387,171,1413,165.3L1440,160L1440,320L1413.3,320C1386.7,320,1333,320,1280,320C1226.7,320,1173,320,1120,320C1066.7,320,1013,320,960,320C906.7,320,853,320,800,320C746.7,320,693,320,640,320C586.7,320,533,320,480,320C426.7,320,373,320,320,320C266.7,320,213,320,160,320C106.7,320,53,320,27,320L0,320Z"></path></svg>