<?xml version="1.0" standalone="no"?><svg xmlns="http://www.w3.org/2000/svg" viewBox="0 0 1440 220"><path fill="#004edf" fill-opacity="1" d="M0,160L40,138.7C80,117,160,75,240,85.3C320,96,400,160,480,165.3C560,171,640,117,720,117.3C800,117,880,171,960,176C1040,181,1120,139,1200,138.7C1280,139,1360,181,1400,202.7L1440,224L1440,320L1400,320C1360,320,1280,320,1200,320C1120,320,1040,320,960,320C880,320,800,320,720,320C640,320,560,320,480,320C400,320,320,320,240,320C160,320,80,320,40,320L0,320Z"></path></svg>