<?xml version="1.0" standalone="no"?>
<!DOCTYPE svg PUBLIC "-//W3C//DTD SVG 20010904//EN"
 "http://www.w3.org/TR/2001/REC-SVG-20010904/DTD/svg10.dtd">
<svg version="1.0" xmlns="http://www.w3.org/2000/svg"
 width="256.000000pt" height="98.000000pt" viewBox="0 0 256.000000 98.000000"
 preserveAspectRatio="xMidYMid meet">

<g transform="translate(0.000000,98.000000) scale(0.100000,-0.100000)"
fill="#ffffff" stroke="none">
<path d="M309 638 c-66 -97 -165 -168 -235 -168 -18 0 -42 -9 -55 -19 -20 -16
-22 -23 -13 -47 9 -28 12 -29 74 -29 81 0 153 32 228 99 l52 48 54 -50 c87
-79 133 -97 251 -97 90 0 105 3 156 29 32 15 78 49 103 75 l46 47 51 -49 c28
-27 76 -61 108 -76 48 -22 69 -26 151 -26 81 0 103 4 150 26 30 14 79 47 108
74 l53 47 52 -49 c84 -79 133 -98 252 -98 118 0 164 18 251 97 l54 50 52 -48
c75 -67 147 -99 228 -99 62 0 65 1 74 29 9 24 7 31 -13 47 -13 10 -37 19 -55
19 -70 0 -169 71 -236 168 -33 49 -63 41 -118 -31 -76 -100 -161 -143 -264
-134 -79 7 -138 44 -207 130 -63 78 -87 85 -122 35 -153 -224 -365 -224 -518
0 -34 49 -61 43 -115 -26 -75 -99 -146 -141 -237 -142 -85 0 -176 48 -230 123
-49 69 -58 77 -83 77 -17 0 -32 -11 -47 -32z"/>
</g>
</svg>
