<?xml version="1.0" encoding="UTF-8" standalone="no"?>
<svg
   xmlns:dc="http://purl.org/dc/elements/1.1/"
   xmlns:cc="http://creativecommons.org/ns#"
   xmlns:rdf="http://www.w3.org/1999/02/22-rdf-syntax-ns#"
   xmlns:svg="http://www.w3.org/2000/svg"
   xmlns="http://www.w3.org/2000/svg"
   xmlns:sodipodi="http://sodipodi.sourceforge.net/DTD/sodipodi-0.dtd"
   xmlns:inkscape="http://www.inkscape.org/namespaces/inkscape"
   version="1.0"
   width="501.46286pt"
   height="29.506611pt"
   viewBox="0 0 501.46285 29.506611"
   preserveAspectRatio="xMidYMid meet"
   id="svg831"
   sodipodi:docname="wave-long.svg"
   inkscape:version="0.92.5 (2060ec1f9f, 2020-04-08)">
  <metadata
     id="metadata837">
    <rdf:RDF>
      <cc:Work
         rdf:about="">
        <dc:format>image/svg+xml</dc:format>
        <dc:type
           rdf:resource="http://purl.org/dc/dcmitype/StillImage" />
        <dc:title></dc:title>
      </cc:Work>
    </rdf:RDF>
  </metadata>
  <defs
     id="defs835" />
  <sodipodi:namedview
     pagecolor="#ffffff"
     bordercolor="#666666"
     borderopacity="1"
     objecttolerance="10"
     gridtolerance="10"
     guidetolerance="10"
     inkscape:pageopacity="0"
     inkscape:pageshadow="2"
     inkscape:window-width="1920"
     inkscape:window-height="1001"
     id="namedview833"
     showgrid="false"
     inkscape:zoom="1.3434338"
     inkscape:cx="304.44163"
     inkscape:cy="-81.709614"
     inkscape:window-x="-9"
     inkscape:window-y="-9"
     inkscape:window-maximized="1"
     inkscape:current-layer="g829" />
  <g
     transform="matrix(0.1,0,0,-0.1,134.45511,115.57618)"
     id="g829"
     style="fill:#FFFFFF;stroke:none">
    <g
       id="g843">
      <path
         inkscape:connector-curvature="0"
         id="path827"
         d="m -1036.4328,1123.6956 c -66,-97 -165,-167.99997 -235,-167.99997 -18,0 -42,-9 -55,-19 -20,-16 -22,-23 -13,-46.99997 9,-28 12,-29 74,-29 81,0 153,32 228,98.99997 l 51.99999,47.99997 54,-49.99997 c 87,-78.99997 133,-96.99997 251,-96.99997 90,0 105,3 156,29 32,14.99997 78,48.99997 103,74.99997 l 46,46.99997 51,-48.99997 c 28,-27 76,-61 108,-75.99997 48,-22 69,-26 151.000002,-26 81,0 103,4 150,26 29.999998,13.99997 78.999998,46.99997 107.999998,73.99997 l 53,46.99997 52,-48.99997 c 84,-78.99997 133,-97.99997 252,-97.99997 118,0 164,18 251,96.99997 l 54,49.99997 52,-47.99997 c 75,-66.99997 147.00001,-98.99997 228.00001,-98.99997 62,0 65,1 74,29 9,23.99997 7,30.99997 -13,46.99997 -13,10 -37,19 -55,19 -70,0 -169.00001,70.99997 -236.00001,167.99997 -33,49 -63,41 -118,-31 -76,-99.99997 -161,-142.99997 -264,-133.99997 -79,7 -138,43.99997 -207,129.99997 -63,78 -87,85 -122,35 -152.999998,-223.99997 -365,-223.99997 -518,0 -34,49 -61,43 -115,-26 -75,-98.99997 -146,-140.99997 -237,-141.99997 -85,0 -176,47.99997 -230,122.99997 -49,69 -58,77 -83,77 -16.99999,0 -31.99999,-11 -46.99999,-32 z" />
      <path
         d="m 1419.959,1123.6957 c -66,-97 -165,-168.00004 -235,-168.00004 -18,0 -42,-9 -55,-19 -20,-16 -22,-23 -13,-47 9,-28 12,-29 74,-29 81,0 153,32 228,99 l 52,48.00004 54,-50.00004 c 87,-79 133,-97 251,-97 90,0 105,3 156,29 32,15 78,49 103,75 l 46,47.00004 51,-49.00004 c 28,-27 76,-61 108,-76 48,-22 69,-26 151,-26 81,0 103,4 150,26 30,14 79,47 108,74 l 53,47.00004 52,-49.00004 c 84,-79 133,-98 252,-98 118,0 164,18 251,97 l 54,50.00004 52,-48.00004 c 75,-67 147,-99 228,-99 62,0 65,1 74,29 9,24 7,31 -13,47 -13,10 -37,19 -55,19 -70,0 -169,71.00004 -236,168.00004 -33,49 -63,41 -118,-31 -76,-100.00004 -161,-143.00004 -264,-134.00004 -79,7 -138,44.00004 -207,130.00004 -63,78 -87,85 -122,35 -153,-224.00004 -365,-224.00004 -518,0 -34,49 -61,43 -115,-26 -75,-99.00001 -146,-141.00004 -237,-142.00004 -85,0 -176,48.00004 -230,123.00004 -49,69 -58,77 -83,77 -17,0 -32,-11 -47,-32 z"
         id="path839"
         inkscape:connector-curvature="0" />
    </g>
  </g>
</svg>
